<svg enable-background="new 0 0 512 512" viewBox="0 0 512 512" xmlns="http://www.w3.org/2000/svg"><path d="m256.001 512c140.999 0 255.999-115 255.999-255.999s-115-256.001-255.999-256.001c-141.001 0-256.001 115.002-256.001 256.001s115 255.999 256.001 255.999z" fill="#ffca4f"/><path d="m153.12 135.519v282.601l62.191-54.629v-282.601h-8.092l-4.307 3.287h-40.882l-.013-3.342-6.725.055-62.194 54.626h60.019z" fill="#5dddd3"/><path d="m101.667 135.519h44.392l56.853-51.342h-44.392z" fill="#fff"/><path d="m168.834 121.717-7.365-.113-15.407 13.915h-44.392l16.131-14.571-7.979-.118-16.722 14.689v282.601h60.019l15.712-13.8v-282.603z" fill="#ff757c"/><path d="m249.685 135.519v282.601l62.189-54.629v-282.601-.003h-8.092l-4.304 3.292h-40.879l-.013-3.342-6.728.05-62.194 54.629h60.019.003v.003z" fill="#ecf0f1"/><path d="m198.233 135.519h44.391l56.853-51.342h-44.391z" fill="#fff"/><path d="m265.397 121.717-7.365-.113-15.407 13.915h-44.391l16.131-14.571-7.979-.118-16.722 14.689v282.601h60.019l15.712-13.8v-282.603z" fill="#ff757c"/><path d="m380.942 70.85-46.047 68.785 72.694 273.09 46.047-68.785-72.694-273.09-7.819 2.083-3.315 4.283-39.505 10.516-.871-3.224-6.487 1.781-46.049 68.785 57.997-15.439z" fill="#5dddd3"/><path d="m285.174 152.871 42.899-11.418 41.732-64.237-42.896 11.418-41.734 64.24v-.003z" fill="#fff"/><path d="m346.529 122.255-7.148 1.789-11.308 17.409-42.896 11.418 11.843-18.227-7.74 1.936-12.381 18.497 72.694 273.09 58-15.439 11.633-17.375-72.694-273.095z" fill="#ff757c"/><g fill="#fff"><path d="m394.411 146.759-3.651-13.894-25.732 42.073 3.649 13.894 25.734-42.075z"/><path d="m380.512 138.869-1.938-9.028-17.367 28.399 1.941 9.026 17.367-28.396h-.003z"/></g></svg>